<svg
  xmlns="http://www.w3.org/2000/svg"
  width="24"
  height="24"
  viewBox="0 0 24 24"
  fill="none"
  stroke="currentColor"
  stroke-width="2"
  stroke-linecap="round"
  stroke-linejoin="round"
>
  <path d="M9 5a2 2 0 1 0-4 0v4" />
  <path d="M13 9V4a2 2 0 1 0-4 0v5" />
  <path d="M15 10a2 2 0 0 0 2-2V5a2 2 0 1 0-4 0" />
  <rect width="4" height="6" x="17" y="5" rx="2" />
  <path d="M5 21v-3a6.74 6.74 0 0 1-3-5.6V12a3 3 0 0 1 3-3h8.5a1.5 1.5 0 0 1 1.5 1.5 2.5 2.5 0 0 1-2.5 2.5H7a4 4 0 0 1 4 4v1" />
  <path d="M19 21v-3a6.74 6.74 0 0 0 3-5.6v-.99A3.41 3.41 0 0 0 21 9" />
</svg>
